<mxfile host="app.diagrams.net" modified="2023-09-20T20:14:18.858Z" agent="Mozilla/5.0 (Windows NT 10.0; Win64; x64) AppleWebKit/537.36 (KHTML, like Gecko) Chrome/116.0.0.0 Safari/537.36" etag="kag0k05eJfwBrO7b1Cb4" version="21.7.5" type="github">
  <diagram id="R2lEEEUBdFMjLlhIrx00" name="Page-1">
    <mxGraphModel dx="1124" dy="337" grid="0" gridSize="10" guides="1" tooltips="1" connect="1" arrows="1" fold="1" page="0" pageScale="1" pageWidth="850" pageHeight="1100" background="#000000" math="0" shadow="0" extFonts="Permanent Marker^https://fonts.googleapis.com/css?family=Permanent+Marker">
      <root>
        <mxCell id="0" />
        <mxCell id="1" parent="0" />
        <mxCell id="VVHe85yRqkpbYpFj-K9v-1" value="" style="image;aspect=fixed;perimeter=ellipsePerimeter;html=1;align=center;shadow=0;dashed=0;spacingTop=3;image=img/lib/active_directory/databases.svg;rounded=1;labelBackgroundColor=none;fillColor=#09555B;strokeColor=#BAC8D3;fontColor=#EEEEEE;" vertex="1" parent="1">
          <mxGeometry x="469" y="120" width="64.29" height="63" as="geometry" />
        </mxCell>
        <mxCell id="VVHe85yRqkpbYpFj-K9v-11" value="" style="edgeStyle=orthogonalEdgeStyle;rounded=0;orthogonalLoop=1;jettySize=auto;html=1;strokeColor=#0B4D6A;" edge="1" parent="1" source="VVHe85yRqkpbYpFj-K9v-2" target="VVHe85yRqkpbYpFj-K9v-6">
          <mxGeometry relative="1" as="geometry" />
        </mxCell>
        <mxCell id="VVHe85yRqkpbYpFj-K9v-2" value="" style="shape=mxgraph.bpmn.data;labelPosition=center;verticalLabelPosition=bottom;align=center;verticalAlign=top;size=15;html=1;bpmnTransferType=input;rounded=1;labelBackgroundColor=none;fillColor=#09555B;strokeColor=#BAC8D3;fontColor=#EEEEEE;" vertex="1" parent="1">
          <mxGeometry x="14" y="15" width="40" height="60" as="geometry" />
        </mxCell>
        <mxCell id="VVHe85yRqkpbYpFj-K9v-10" value="" style="edgeStyle=orthogonalEdgeStyle;rounded=0;orthogonalLoop=1;jettySize=auto;html=1;strokeColor=#0B4D6A;" edge="1" parent="1" source="VVHe85yRqkpbYpFj-K9v-4" target="VVHe85yRqkpbYpFj-K9v-6">
          <mxGeometry relative="1" as="geometry" />
        </mxCell>
        <mxCell id="VVHe85yRqkpbYpFj-K9v-4" value="" style="shape=mxgraph.bpmn.data;labelPosition=center;verticalLabelPosition=bottom;align=center;verticalAlign=top;size=15;html=1;bpmnTransferType=input;isCollection=1;rounded=1;labelBackgroundColor=none;fillColor=#09555B;strokeColor=#BAC8D3;fontColor=#EEEEEE;" vertex="1" parent="1">
          <mxGeometry x="13" y="121" width="40" height="60" as="geometry" />
        </mxCell>
        <mxCell id="VVHe85yRqkpbYpFj-K9v-5" value="" style="image;aspect=fixed;perimeter=ellipsePerimeter;html=1;align=center;shadow=0;dashed=0;spacingTop=3;image=img/lib/active_directory/web_server.svg;rounded=1;labelBackgroundColor=none;fillColor=#09555B;strokeColor=#BAC8D3;fontColor=#EEEEEE;" vertex="1" parent="1">
          <mxGeometry x="287" y="93.25" width="71" height="88.75" as="geometry" />
        </mxCell>
        <mxCell id="VVHe85yRqkpbYpFj-K9v-6" value="" style="rounded=1;whiteSpace=wrap;html=1;strokeColor=#BAC8D3;fillColor=none;labelBackgroundColor=none;fontColor=#EEEEEE;" vertex="1" parent="1">
          <mxGeometry x="130" y="8" width="66" height="285" as="geometry" />
        </mxCell>
        <mxCell id="VVHe85yRqkpbYpFj-K9v-7" value="" style="shape=flexArrow;endArrow=classic;html=1;rounded=1;strokeColor=#0B4D6A;fillColor=#FFB570;endSize=4;startSize=1;" edge="1" parent="1">
          <mxGeometry width="50" height="50" relative="1" as="geometry">
            <mxPoint x="212" y="150.5" as="sourcePoint" />
            <mxPoint x="264" y="151" as="targetPoint" />
          </mxGeometry>
        </mxCell>
        <mxCell id="VVHe85yRqkpbYpFj-K9v-9" value="" style="edgeStyle=orthogonalEdgeStyle;rounded=0;orthogonalLoop=1;jettySize=auto;html=1;strokeColor=#0B4D6A;" edge="1" parent="1" source="VVHe85yRqkpbYpFj-K9v-8" target="VVHe85yRqkpbYpFj-K9v-6">
          <mxGeometry relative="1" as="geometry" />
        </mxCell>
        <mxCell id="VVHe85yRqkpbYpFj-K9v-8" value="" style="sketch=0;points=[[0,0,0],[0.25,0,0],[0.5,0,0],[0.75,0,0],[1,0,0],[0,1,0],[0.25,1,0],[0.5,1,0],[0.75,1,0],[1,1,0],[0,0.25,0],[0,0.5,0],[0,0.75,0],[1,0.25,0],[1,0.5,0],[1,0.75,0]];points=[[0,0,0],[0.25,0,0],[0.5,0,0],[0.75,0,0],[1,0,0],[0,1,0],[0.25,1,0],[0.5,1,0],[0.75,1,0],[1,1,0],[0,0.25,0],[0,0.5,0],[0,0.75,0],[1,0.25,0],[1,0.5,0],[1,0.75,0]];outlineConnect=0;fontColor=#232F3E;fillColor=#E7157B;strokeColor=#ffffff;dashed=0;verticalLabelPosition=bottom;verticalAlign=top;align=center;html=1;fontSize=12;fontStyle=0;aspect=fixed;shape=mxgraph.aws4.resourceIcon;resIcon=mxgraph.aws4.chatbot;" vertex="1" parent="1">
          <mxGeometry x="1" y="238" width="54" height="54" as="geometry" />
        </mxCell>
        <mxCell id="VVHe85yRqkpbYpFj-K9v-13" value="" style="shape=flexArrow;endArrow=classic;html=1;rounded=1;strokeColor=#0B4D6A;fillColor=#FFB570;" edge="1" parent="1">
          <mxGeometry width="50" height="50" relative="1" as="geometry">
            <mxPoint x="218" y="65" as="sourcePoint" />
            <mxPoint x="272" y="84" as="targetPoint" />
          </mxGeometry>
        </mxCell>
        <mxCell id="VVHe85yRqkpbYpFj-K9v-14" value="" style="shape=flexArrow;endArrow=classic;html=1;rounded=1;strokeColor=#0B4D6A;fillColor=#FFB570;" edge="1" parent="1">
          <mxGeometry width="50" height="50" relative="1" as="geometry">
            <mxPoint x="223" y="248" as="sourcePoint" />
            <mxPoint x="270" y="216" as="targetPoint" />
          </mxGeometry>
        </mxCell>
        <mxCell id="VVHe85yRqkpbYpFj-K9v-15" value="" style="shape=flexArrow;endArrow=classic;html=1;rounded=1;strokeColor=#0B4D6A;fillColor=#FF6666;" edge="1" parent="1">
          <mxGeometry width="50" height="50" relative="1" as="geometry">
            <mxPoint x="382" y="150.5" as="sourcePoint" />
            <mxPoint x="439" y="151" as="targetPoint" />
          </mxGeometry>
        </mxCell>
        <mxCell id="VVHe85yRqkpbYpFj-K9v-16" value="" style="shape=flexArrow;endArrow=classic;html=1;rounded=1;strokeColor=#0B4D6A;fillColor=#67AB9F;" edge="1" parent="1">
          <mxGeometry width="50" height="50" relative="1" as="geometry">
            <mxPoint x="374" y="96" as="sourcePoint" />
            <mxPoint x="432" y="75" as="targetPoint" />
          </mxGeometry>
        </mxCell>
        <mxCell id="VVHe85yRqkpbYpFj-K9v-17" value="" style="shape=flexArrow;endArrow=classic;html=1;rounded=1;strokeColor=#0B4D6A;fillColor=#FFB570;" edge="1" parent="1">
          <mxGeometry width="50" height="50" relative="1" as="geometry">
            <mxPoint x="380" y="204" as="sourcePoint" />
            <mxPoint x="443" y="227" as="targetPoint" />
          </mxGeometry>
        </mxCell>
        <mxCell id="VVHe85yRqkpbYpFj-K9v-18" value="&lt;br&gt;" style="sketch=0;html=1;dashed=0;whitespace=wrap;fillColor=#2875E2;strokeColor=#ffffff;points=[[0.005,0.63,0],[0.1,0.2,0],[0.9,0.2,0],[0.5,0,0],[0.995,0.63,0],[0.72,0.99,0],[0.5,1,0],[0.28,0.99,0]];verticalLabelPosition=bottom;align=center;verticalAlign=top;shape=mxgraph.kubernetes.icon;prIcon=api;fontColor=#EEEEEE;" vertex="1" parent="1">
          <mxGeometry x="465" y="218" width="80" height="67" as="geometry" />
        </mxCell>
        <mxCell id="VVHe85yRqkpbYpFj-K9v-21" value="" style="shape=flexArrow;endArrow=classic;html=1;rounded=1;strokeColor=#0B4D6A;fillColor=#FFB570;" edge="1" parent="1">
          <mxGeometry width="50" height="50" relative="1" as="geometry">
            <mxPoint x="434" y="250" as="sourcePoint" />
            <mxPoint x="367" y="226" as="targetPoint" />
          </mxGeometry>
        </mxCell>
        <mxCell id="VVHe85yRqkpbYpFj-K9v-22" value="API &lt;br&gt;CALL / RESPONSE" style="text;strokeColor=none;align=center;fillColor=none;html=1;verticalAlign=middle;whiteSpace=wrap;rounded=0;fontColor=#EEEEEE;" vertex="1" parent="1">
          <mxGeometry x="323" y="271" width="130" height="30" as="geometry" />
        </mxCell>
        <mxCell id="VVHe85yRqkpbYpFj-K9v-23" value="DATABASE" style="text;strokeColor=none;align=center;fillColor=none;html=1;verticalAlign=middle;whiteSpace=wrap;rounded=0;fontColor=#EEEEEE;" vertex="1" parent="1">
          <mxGeometry x="443" y="185" width="130" height="30" as="geometry" />
        </mxCell>
        <mxCell id="VVHe85yRqkpbYpFj-K9v-24" value="USER&amp;nbsp; &amp;nbsp; &amp;nbsp;INTERFACE" style="text;strokeColor=none;align=center;fillColor=none;html=1;verticalAlign=middle;whiteSpace=wrap;rounded=0;fontColor=#EEEEEE;rotation=-90;" vertex="1" parent="1">
          <mxGeometry x="52.75" y="137.25" width="220.5" height="30" as="geometry" />
        </mxCell>
        <mxCell id="VVHe85yRqkpbYpFj-K9v-26" value="" style="sketch=0;outlineConnect=0;fontColor=#232F3E;gradientColor=none;fillColor=#7AA116;strokeColor=none;dashed=0;verticalLabelPosition=bottom;verticalAlign=top;align=center;html=1;fontSize=12;fontStyle=0;aspect=fixed;pointerEvents=1;shape=mxgraph.aws4.iot_greengrass_component_machine_learning;" vertex="1" parent="1">
          <mxGeometry x="458" width="78" height="78" as="geometry" />
        </mxCell>
        <mxCell id="VVHe85yRqkpbYpFj-K9v-27" value="ML MODEL" style="text;strokeColor=none;align=center;fillColor=none;html=1;verticalAlign=middle;whiteSpace=wrap;rounded=0;fontColor=#EEEEEE;" vertex="1" parent="1">
          <mxGeometry x="457" y="78.13" width="83" height="30" as="geometry" />
        </mxCell>
        <mxCell id="VVHe85yRqkpbYpFj-K9v-29" value="" style="shape=flexArrow;endArrow=classic;html=1;rounded=1;strokeColor=#0B4D6A;fillColor=#FFB570;endSize=4;startSize=1;" edge="1" parent="1">
          <mxGeometry width="50" height="50" relative="1" as="geometry">
            <mxPoint x="542" y="147" as="sourcePoint" />
            <mxPoint x="542" y="46" as="targetPoint" />
            <Array as="points">
              <mxPoint x="589" y="147" />
              <mxPoint x="589" y="46" />
            </Array>
          </mxGeometry>
        </mxCell>
        <mxCell id="VVHe85yRqkpbYpFj-K9v-30" value="&lt;font face=&quot;Helvetica&quot;&gt;TRAIN MODEL &lt;br&gt;ON NEW DATA&lt;/font&gt;" style="text;strokeColor=none;align=center;fillColor=none;html=1;verticalAlign=middle;whiteSpace=wrap;rounded=0;fontColor=#EEEEEE;rotation=90;spacing=3;fontFamily=Verdana;" vertex="1" parent="1">
          <mxGeometry x="534" y="86" width="165" height="30" as="geometry" />
        </mxCell>
        <mxCell id="VVHe85yRqkpbYpFj-K9v-33" value="BACKEND" style="text;strokeColor=none;align=center;fillColor=none;html=1;verticalAlign=middle;whiteSpace=wrap;rounded=0;fontColor=#EEEEEE;" vertex="1" parent="1">
          <mxGeometry x="290" y="187" width="60" height="30" as="geometry" />
        </mxCell>
        <mxCell id="VVHe85yRqkpbYpFj-K9v-34" value="NEW DATA" style="text;strokeColor=none;align=center;fillColor=none;html=1;verticalAlign=middle;whiteSpace=wrap;rounded=0;fontColor=#EEEEEE;" vertex="1" parent="1">
          <mxGeometry x="-2" y="188" width="69" height="30" as="geometry" />
        </mxCell>
        <mxCell id="VVHe85yRqkpbYpFj-K9v-35" value="IMAGE" style="text;strokeColor=none;align=center;fillColor=none;html=1;verticalAlign=middle;whiteSpace=wrap;rounded=0;fontColor=#EEEEEE;" vertex="1" parent="1">
          <mxGeometry x="1" y="76.13" width="60" height="30" as="geometry" />
        </mxCell>
        <mxCell id="VVHe85yRqkpbYpFj-K9v-36" value="CHATBOT" style="text;strokeColor=none;align=center;fillColor=none;html=1;verticalAlign=middle;whiteSpace=wrap;rounded=0;fontColor=#EEEEEE;" vertex="1" parent="1">
          <mxGeometry x="-2" y="298" width="60" height="30" as="geometry" />
        </mxCell>
        <mxCell id="VVHe85yRqkpbYpFj-K9v-38" value="" style="shape=flexArrow;endArrow=classic;html=1;rounded=1;strokeColor=#0B4D6A;fillColor=#67AB9F;entryX=0.5;entryY=0;entryDx=0;entryDy=0;" edge="1" parent="1">
          <mxGeometry width="50" height="50" relative="1" as="geometry">
            <mxPoint x="414.5" y="51.75" as="sourcePoint" />
            <mxPoint x="357" y="74" as="targetPoint" />
          </mxGeometry>
        </mxCell>
        <mxCell id="VVHe85yRqkpbYpFj-K9v-39" value="GOOGLE&lt;br&gt;PALM API" style="text;strokeColor=none;align=center;fillColor=none;html=1;verticalAlign=middle;whiteSpace=wrap;rounded=0;fontColor=#EEEEEE;" vertex="1" parent="1">
          <mxGeometry x="478.14" y="293" width="60" height="30" as="geometry" />
        </mxCell>
      </root>
    </mxGraphModel>
  </diagram>
</mxfile>
